<?xml version="1.0" encoding="UTF-8"?><svg id="a" xmlns="http://www.w3.org/2000/svg" viewBox="0 0 62.02 28.35"><defs><style>.b{fill:#fff;}</style></defs><path class="b" d="M2.09,22.23l-.54-1.32v-.52l.09-.23h.08l1.11,2.71c.09,.23,.16,.37,.24,.43,.08,.06,.18,.1,.3,.11v.09h-1.25v-.09c.13-.01,.21-.04,.25-.08,.05-.03,.06-.08,.06-.13,0-.08-.03-.19-.09-.34l-.19-.47h-.62v-.18h.55Zm-.55-1.3l-.54,1.3h.54v.18H.92l-.21,.52c-.05,.13-.08,.21-.08,.28,0,.05,.03,.1,.06,.14,.05,.04,.15,.06,.3,.08v.09H0v-.09c.13-.03,.21-.06,.25-.1,.09-.08,.18-.23,.26-.47l1.02-2.45v.54Z"/><path class="b" d="M3.36,20.96h.73l1.64,1.9v-1.46c0-.15-.02-.25-.06-.29-.05-.05-.13-.09-.23-.09h-.09v-.06h.92v.06h-.09c-.11,0-.19,.04-.24,.1-.04,.04-.05,.14-.05,.28v2.14h-.06l-1.76-2.04v1.56c0,.15,.01,.25,.05,.29,.05,.05,.13,.08,.23,.08h.1v.08h-.93v-.08h.09c.11,0,.2-.03,.25-.1,.02-.04,.04-.13,.04-.26v-1.78c-.08-.08-.14-.14-.18-.16-.04-.03-.1-.05-.18-.08-.04-.01-.1-.03-.18-.03v-.06Z"/><path class="b" d="M7.91,22.51l-.45-1.02h-.01v-.42l.09-.18h.06l.93,2.12c.08,.18,.14,.28,.2,.33,.06,.05,.15,.09,.26,.09v.08h-1.06v-.08c.1,0,.18-.03,.21-.05,.04-.03,.05-.06,.05-.1,0-.06-.03-.14-.08-.26l-.16-.37h-.52v-.14h.47Zm-.47-1.01l-.45,1.01h.45v.14h-.52l-.18,.4c-.05,.1-.08,.18-.08,.23,0,.04,.03,.06,.06,.1,.04,.02,.13,.04,.25,.05v.08h-.84v-.08c.11-.01,.19-.04,.21-.08,.08-.05,.15-.18,.23-.37l.86-1.91v.43Z"/><path class="b" d="M12.48,23.5l-1.25-2.81v2.23c0,.2,.01,.33,.06,.38,.05,.08,.15,.1,.28,.1h.11v.1h-1.13v-.1h.13c.13,0,.23-.04,.29-.13,.03-.05,.05-.16,.05-.35v-2.18c0-.15-.01-.25-.05-.31-.03-.05-.06-.09-.13-.13-.05-.02-.15-.05-.29-.05v-.09h.92l1.18,2.61,1.16-2.61h.92v.09h-.11c-.14,0-.24,.05-.3,.13-.03,.06-.05,.18-.05,.36v2.18c0,.2,.03,.33,.08,.38,.05,.08,.15,.1,.28,.1h.11v.1h-1.38v-.1h.11c.14,0,.24-.04,.3-.13,.02-.05,.05-.16,.05-.35v-2.23l-1.26,2.81h-.08Z"/><path class="b" d="M16.74,22.51l-.45-1.02h0v-.42l.08-.18h.06l.93,2.12c.08,.18,.14,.28,.2,.33,.06,.05,.15,.09,.26,.09v.08h-1.06v-.08c.1,0,.18-.03,.21-.05,.04-.03,.05-.06,.05-.1,0-.06-.03-.14-.08-.26l-.16-.37h-.5v-.14h.45Zm-.45-1.01l-.47,1.01h.47v.14h-.53l-.18,.4c-.05,.1-.08,.18-.08,.23,0,.04,.02,.06,.06,.1,.04,.02,.13,.04,.25,.05v.08h-.84v-.08c.11-.01,.19-.04,.21-.08,.08-.05,.15-.18,.23-.37l.87-1.91v.43Z"/><path class="b" d="M17.91,20.96h.73l1.64,1.9v-1.46c0-.15-.03-.25-.06-.29-.04-.05-.11-.09-.23-.09h-.09v-.06h.93v.06h-.1c-.11,0-.19,.04-.24,.1-.03,.04-.04,.14-.04,.28v2.14h-.08l-1.76-2.04v1.56c0,.15,.01,.25,.05,.29,.05,.05,.13,.08,.24,.08h.09v.08h-.93v-.08h.1c.11,0,.19-.03,.24-.1,.03-.04,.04-.13,.04-.26v-1.78c-.08-.08-.14-.14-.18-.16-.04-.03-.1-.05-.18-.08-.04-.01-.09-.03-.18-.03v-.06Z"/><path class="b" d="M22.53,23.32c.16-.05,.31-.14,.44-.26,.2-.2,.3-.48,.3-.83s-.1-.63-.3-.83c-.13-.13-.28-.2-.44-.25v-.18c.2,.03,.37,.06,.49,.11,.21,.09,.38,.23,.5,.43,.13,.2,.19,.44,.19,.7,0,.35-.11,.64-.34,.88-.2,.21-.48,.34-.84,.38v-.15Zm-.74-.01c.16,.04,.3,.05,.42,.05s.23-.01,.33-.04v.15c-.1,.01-.2,.03-.31,.03h-1.2v-.08h.1c.11,0,.2-.04,.24-.1,.04-.04,.05-.14,.05-.28v-1.64c0-.16-.03-.26-.05-.3-.06-.05-.14-.09-.24-.09h-.1v-.06h1.1c.15,0,.29,0,.42,.01v.18c-.1-.04-.21-.05-.34-.05-.11,0-.25,.03-.4,.06v2.15Z"/><path class="b" d="M25.25,22.51l-.45-1.02h0v-.42l.08-.18h.08l.93,2.12c.08,.18,.14,.28,.2,.33,.06,.05,.14,.09,.25,.09v.08h-1.06v-.08c.11,0,.18-.03,.21-.05,.04-.03,.06-.06,.06-.1,0-.06-.03-.14-.08-.26l-.16-.37h-.52v-.14h.45Zm-.45-1.01l-.47,1.01h.47v.14h-.52l-.19,.4c-.04,.1-.06,.18-.06,.23,0,.04,.01,.06,.06,.1,.04,.02,.11,.04,.24,.05v.08h-.83v-.08c.11-.01,.18-.04,.21-.08,.06-.05,.14-.18,.23-.37l.86-1.91v.43Z"/><path class="b" d="M27.8,22.15c.1-.02,.19-.06,.25-.11,.13-.11,.19-.24,.19-.4s-.05-.29-.15-.39c-.08-.08-.18-.11-.29-.14v-.15c.18,.01,.31,.02,.4,.06,.14,.04,.25,.11,.34,.21,.1,.1,.15,.23,.15,.38s-.06,.29-.16,.4c-.11,.11-.28,.2-.5,.24l.55,.73c.13,.18,.24,.28,.33,.34,.09,.05,.21,.09,.35,.1v.08h-.72l-.74-.98v-.37Zm-.44,.04h.11c.13,0,.24-.01,.33-.04v.37l-.15-.21c-.08,.01-.13,.01-.16,.01h-.06s-.04-.01-.06-.01v.74c0,.16,.02,.26,.06,.3,.05,.05,.13,.08,.23,.08h.1v.08h-1.15v-.08h.1c.11,0,.19-.04,.24-.1,.03-.04,.04-.14,.04-.28v-1.64c0-.16-.01-.26-.05-.3-.05-.05-.13-.09-.23-.09h-.1v-.06h1.2v.15s-.08-.01-.13-.01c-.08,0-.18,.01-.31,.04v1.06Z"/><path class="b" d="M31.22,22.51l-.47-1.02h0v-.42l.08-.18h.08l.93,2.12c.08,.18,.14,.28,.2,.33,.06,.05,.14,.09,.25,.09v.08h-1.06v-.08c.11,0,.19-.03,.23-.05,.04-.03,.05-.06,.05-.1,0-.06-.03-.14-.08-.26l-.16-.37h-.52v-.14h.47Zm-.47-1.01l-.45,1.01h.45v.14h-.52l-.19,.4c-.04,.1-.06,.18-.06,.23,0,.04,.03,.06,.06,.1,.04,.02,.11,.04,.25,.05v.08h-.84v-.08c.11-.01,.18-.04,.21-.08,.06-.05,.14-.18,.23-.37l.86-1.91v.43Z"/><path class="b" d="M36.66,20.23v.09c-.13,.01-.21,.05-.28,.1-.09,.09-.16,.2-.24,.37l-1.2,2.77h-.09l-1.28-2.81c-.08-.14-.11-.23-.14-.26-.05-.05-.1-.09-.16-.11-.06-.03-.14-.05-.25-.05v-.09h1.41v.09c-.16,.01-.26,.04-.31,.08-.05,.04-.06,.08-.06,.14,0,.08,.04,.2,.11,.38l.87,1.91,.81-1.89c.09-.19,.13-.31,.13-.39,0-.05-.03-.09-.08-.14-.05-.04-.13-.06-.25-.09h-.04v-.09h1.06Z"/><path class="b" d="M37.54,23.42v.08h-1.13v-.08h.09c.11,0,.19-.03,.24-.09,.04-.04,.05-.14,.05-.29v-1.64c0-.14-.01-.21-.03-.26-.01-.02-.04-.05-.09-.08-.05-.03-.11-.05-.18-.05h-.09v-.06h1.13v.06h-.09c-.11,0-.19,.04-.24,.1-.04,.04-.05,.14-.05,.29v1.64c0,.13,.01,.21,.02,.25,.01,.04,.04,.06,.09,.09,.05,.03,.11,.04,.18,.04h.09Z"/><path class="b" d="M39.99,22.79h.06l-.23,.7h-2.06v-.08h.1c.1,0,.19-.04,.24-.1,.02-.04,.04-.14,.04-.28v-1.64c0-.16-.01-.26-.05-.3-.05-.05-.13-.09-.23-.09h-.1v-.06h1.21v.06c-.15,0-.25,.01-.3,.04-.06,.04-.1,.06-.11,.1-.03,.05-.04,.14-.04,.29v1.6c0,.1,.01,.18,.04,.21,.01,.02,.04,.04,.06,.05,.04,.01,.14,.03,.31,.03h.19c.21,0,.35-.01,.44-.05,.08-.02,.15-.08,.23-.15,.06-.06,.13-.19,.2-.34"/><path class="b" d="M42.21,22.79h.06l-.23,.7h-2.06v-.08h.1c.11,0,.19-.04,.24-.1,.03-.04,.04-.14,.04-.28v-1.64c0-.16-.01-.26-.05-.3-.05-.05-.13-.09-.23-.09h-.1v-.06h1.21v.06c-.14,0-.24,.01-.3,.04-.05,.04-.09,.06-.11,.1-.03,.05-.04,.14-.04,.29v1.6c0,.1,.01,.18,.04,.21,.01,.02,.04,.04,.08,.05,.03,.01,.13,.03,.3,.03h.2c.2,0,.34-.01,.43-.05,.08-.02,.15-.08,.23-.15,.06-.06,.14-.19,.2-.34"/><path class="b" d="M44.17,22.51l-.45-1.02h-.01v-.42l.09-.18h.06l.92,2.12c.08,.18,.14,.28,.2,.33,.06,.05,.15,.09,.25,.09v.08h-1.03v-.08c.1,0,.18-.03,.21-.05,.03-.03,.04-.06,.04-.1,0-.06-.01-.14-.06-.26l-.16-.37h-.52v-.14h.47Zm-.47-1.01l-.45,1.01h.45v.14h-.52l-.18,.4c-.05,.1-.08,.18-.08,.23,0,.04,.03,.06,.06,.1,.04,.02,.13,.04,.25,.05v.08h-.84v-.08c.11-.01,.19-.04,.21-.08,.06-.05,.14-.18,.23-.37l.86-1.91v.43Z"/><path class="b" d="M47.06,20.89v.88h-.08c-.01-.16-.06-.3-.13-.4-.06-.1-.14-.18-.25-.24-.11-.05-.24-.09-.35-.09-.14,0-.25,.04-.34,.13-.09,.08-.14,.16-.14,.26,0,.08,.02,.15,.09,.21,.08,.09,.28,.21,.58,.38,.25,.13,.41,.23,.52,.29,.09,.06,.16,.15,.2,.24,.05,.09,.08,.19,.08,.29,0,.19-.08,.37-.23,.5-.16,.14-.37,.2-.62,.2-.08,0-.14,0-.21-.01-.04-.01-.13-.03-.25-.06-.13-.05-.21-.06-.24-.06-.04,0-.06,.01-.09,.03-.01,.03-.03,.06-.04,.11h-.08v-.87h.08c.04,.19,.08,.31,.14,.42,.06,.09,.15,.16,.26,.23,.13,.05,.25,.09,.39,.09,.16,0,.3-.05,.39-.13,.1-.09,.14-.18,.14-.29,0-.06-.01-.13-.05-.19-.04-.06-.09-.13-.16-.19-.05-.03-.19-.11-.43-.23-.23-.13-.39-.23-.48-.3-.1-.06-.18-.15-.23-.24-.05-.09-.08-.18-.08-.29,0-.18,.08-.33,.23-.47,.14-.13,.33-.2,.55-.2,.15,0,.3,.04,.45,.1,.08,.04,.13,.05,.16,.05,.03,0,.06-.01,.08-.03,.03-.03,.04-.06,.05-.13h.08Z"/><path class="b" d="M50.83,23.27c.2-.06,.39-.19,.55-.35,.25-.26,.38-.63,.38-1.08s-.13-.82-.38-1.1c-.16-.16-.34-.28-.55-.34v-.21c.25,.02,.47,.08,.62,.14,.26,.11,.48,.3,.63,.57,.16,.26,.24,.58,.24,.92,0,.47-.14,.86-.42,1.16-.25,.28-.62,.44-1.07,.5v-.2Zm-.93-.01c.21,.04,.39,.06,.53,.06s.28-.01,.4-.05v.2c-.13,.01-.25,.03-.39,.03h-1.5v-.1h.13c.14,0,.24-.04,.3-.13,.04-.06,.05-.18,.05-.37v-2.15c0-.21-.01-.34-.06-.39-.06-.08-.16-.11-.29-.11h-.13v-.09h1.37c.19,0,.35,.01,.52,.03v.21c-.13-.04-.28-.05-.43-.05-.14,0-.31,.03-.5,.08v2.83Z"/><path class="b" d="M53.74,22.51l-.45-1.02h0v-.42l.08-.18h.08l.93,2.12c.08,.18,.14,.28,.2,.33,.06,.05,.14,.09,.25,.09v.08h-1.06v-.08c.11,0,.18-.03,.21-.05,.04-.03,.06-.06,.06-.1,0-.06-.03-.14-.08-.26l-.16-.37h-.52v-.14h.45Zm-.45-1.01l-.47,1.01h.47v.14h-.52l-.19,.4c-.04,.1-.06,.18-.06,.23,0,.04,.01,.06,.05,.1,.05,.02,.13,.04,.25,.05v.08h-.83v-.08c.11-.01,.18-.04,.21-.08,.06-.05,.14-.18,.23-.37l.86-1.91v.43Z"/><path class="b" d="M57.2,22.79h.06l-.23,.7h-2.06v-.08h.1c.11,0,.19-.04,.24-.1,.03-.04,.04-.14,.04-.28v-1.64c0-.16-.01-.26-.05-.3-.05-.05-.13-.09-.23-.09h-.1v-.06h1.21v.06c-.15,0-.24,.01-.3,.04-.06,.04-.1,.06-.11,.1-.02,.05-.04,.14-.04,.29v1.6c0,.1,.01,.18,.04,.21,.01,.02,.04,.04,.06,.05,.04,.01,.14,.03,.31,.03h.19c.21,0,.35-.01,.44-.05,.08-.02,.15-.08,.23-.15,.06-.06,.14-.19,.2-.34"/><path class="b" d="M59.03,22.51l-.45-1.02h0v-.42l.08-.18h.08l.93,2.12c.08,.18,.14,.28,.2,.33,.06,.05,.14,.09,.25,.09v.08h-1.06v-.08c.11,0,.18-.03,.21-.05,.04-.03,.06-.06,.06-.1,0-.06-.02-.14-.08-.26l-.16-.37h-.52v-.14h.45Zm-.45-1.01l-.47,1.01h.47v.14h-.52l-.19,.4c-.04,.1-.06,.18-.06,.23,0,.04,.01,.06,.05,.1,.05,.02,.13,.04,.25,.05v.08h-.83v-.08c.1-.01,.18-.04,.21-.08,.06-.05,.14-.18,.21-.37l.87-1.91v.43Z"/><path class="b" d="M62,20.96l.03,.59h-.08c-.01-.1-.03-.18-.05-.23-.05-.06-.1-.13-.16-.15-.08-.04-.16-.05-.28-.05h-.37v1.94c0,.15,.01,.25,.05,.29,.05,.05,.13,.08,.23,.08h.09v.08h-1.13v-.08h.1c.11,0,.19-.03,.24-.1,.03-.04,.05-.13,.05-.26v-1.94h-.33c-.13,0-.21,0-.26,.02-.08,.03-.13,.06-.18,.14-.05,.06-.08,.15-.09,.26h-.08l.04-.59h2.18Z"/><path class="b" d="M22.18,27.31c.08-.02,.14-.05,.19-.09,.09-.08,.14-.18,.14-.3,0-.11-.04-.21-.11-.28-.06-.06-.13-.09-.21-.1v-.11c.13,0,.23,.01,.3,.04,.1,.03,.18,.09,.25,.16,.06,.08,.1,.16,.1,.28s-.04,.21-.11,.3c-.09,.09-.2,.14-.38,.18l.42,.54c.09,.13,.18,.2,.24,.25,.06,.04,.15,.06,.26,.08v.05h-.53l-.55-.73v-.26Zm-.33,.03h.09c.09,0,.18-.01,.24-.03v.26l-.11-.15h-.21v.54c0,.13,.01,.2,.04,.23,.04,.04,.1,.06,.18,.06h.08v.05h-.86v-.05h.08c.09,0,.15-.03,.19-.08,.01-.04,.03-.1,.03-.21v-1.21c0-.11-.01-.19-.04-.23-.04-.04-.1-.05-.18-.05h-.08v-.05h.89v.11s-.06-.01-.1-.01c-.05,0-.13,.01-.23,.02v.78Z"/><path class="b" d="M23.97,26.53v.74h.44c.11,0,.19-.03,.23-.05,.05-.05,.08-.11,.09-.23h.05v.65h-.05c-.02-.09-.04-.15-.05-.18-.01-.04-.04-.06-.09-.08-.04-.02-.1-.02-.18-.02h-.44v.62c0,.09,.01,.14,.01,.15,.01,.03,.03,.04,.04,.04,.03,.01,.06,.02,.11,.02h.34c.11,0,.19-.01,.24-.02,.05-.01,.1-.04,.15-.09,.06-.06,.13-.14,.19-.26h.05l-.16,.48h-1.52v-.05h.06c.05,0,.09-.01,.14-.04,.03-.01,.05-.04,.06-.06,.01-.03,.01-.09,.01-.18v-1.22c0-.13-.01-.2-.04-.23-.04-.04-.09-.05-.18-.05h-.06v-.05h1.52v.4h-.04c-.02-.1-.04-.16-.06-.2-.03-.04-.06-.06-.11-.09-.04-.01-.11-.01-.21-.01h-.54Z"/><path class="b" d="M26.49,26.38v.65h-.05c-.03-.13-.05-.23-.1-.3-.04-.08-.1-.13-.19-.18-.09-.04-.18-.06-.26-.06-.1,0-.18,.03-.25,.09-.06,.06-.1,.13-.1,.2,0,.05,.02,.11,.06,.15,.06,.08,.21,.16,.44,.28,.18,.1,.3,.18,.38,.23,.06,.05,.11,.1,.15,.18,.04,.06,.06,.14,.06,.21,0,.14-.06,.26-.18,.37-.13,.1-.26,.15-.45,.15-.06,0-.11,0-.16-.01-.02,0-.09-.01-.19-.05-.09-.03-.15-.04-.18-.04s-.05,0-.06,.01c-.01,.03-.03,.05-.03,.09h-.05v-.64h.05c.03,.14,.06,.24,.1,.3,.04,.06,.11,.13,.2,.16,.09,.05,.18,.08,.29,.08s.21-.04,.29-.1c.06-.05,.1-.13,.1-.21,0-.04-.01-.09-.04-.14-.03-.05-.08-.09-.13-.13-.04-.04-.14-.09-.31-.18-.16-.1-.29-.16-.36-.21-.06-.06-.13-.11-.16-.19-.02-.06-.05-.13-.05-.21,0-.13,.05-.25,.16-.34,.11-.1,.25-.15,.42-.15,.1,0,.21,.03,.34,.08,.05,.03,.09,.04,.11,.04s.04-.01,.06-.03c.01-.01,.03-.04,.04-.09h.05Z"/><path class="b" d="M27.75,28.24c.19,0,.34-.06,.45-.2,.13-.14,.19-.35,.19-.65s-.06-.55-.2-.72c-.1-.13-.25-.19-.44-.19v-.1h.02c.25,0,.48,.09,.67,.28,.19,.19,.28,.42,.28,.69s-.09,.53-.28,.72c-.19,.19-.42,.28-.69,.28v-.1Zm0-1.76c-.18,0-.33,.06-.43,.19-.14,.15-.2,.38-.2,.68s.08,.54,.2,.72c.11,.11,.25,.18,.43,.18,0,0,0,.01,0,0v.1c-.28,0-.5-.09-.68-.28-.19-.18-.29-.42-.29-.7s.11-.54,.33-.73c.18-.16,.4-.25,.64-.25v.1Z"/><path class="b" d="M29.58,27.31c.08-.02,.14-.05,.19-.09,.09-.08,.14-.18,.14-.3,0-.11-.04-.21-.11-.28-.06-.06-.13-.09-.21-.1v-.11c.13,0,.23,.01,.3,.04,.1,.03,.18,.09,.25,.16,.06,.08,.1,.16,.1,.28s-.04,.21-.11,.3c-.09,.09-.2,.14-.38,.18l.42,.54c.09,.13,.18,.2,.24,.25,.06,.04,.15,.06,.26,.08v.05h-.53l-.55-.73v-.26Zm-.33,.03h.09c.09,0,.16-.01,.24-.03v.26l-.11-.15h-.21v.54c0,.13,.01,.2,.04,.23,.04,.04,.1,.06,.18,.06h.08v.05h-.86v-.05h.08c.09,0,.15-.03,.19-.08,.01-.04,.02-.1,.02-.21v-1.21c0-.11-.01-.19-.04-.23-.04-.04-.1-.05-.18-.05h-.08v-.05h.89v.11s-.06-.01-.1-.01c-.05,0-.13,.01-.23,.02v.78Z"/><path class="b" d="M32.09,26.43l.02,.44h-.06c-.01-.09-.03-.14-.04-.18-.04-.05-.08-.09-.13-.11-.05-.03-.11-.04-.2-.04h-.28v1.44c0,.11,.01,.19,.04,.21,.04,.04,.1,.06,.18,.06h.06v.05h-.83v-.05h.06c.09,0,.15-.03,.18-.08,.03-.03,.04-.1,.04-.2v-1.44h-.24c-.09,0-.15,0-.2,.01-.05,.03-.09,.06-.13,.1-.04,.05-.05,.13-.06,.21h-.05v-.44h1.64Z"/><path class="b" d="M33.52,27.07c.06-.04,.11-.09,.15-.13,.06-.08,.09-.15,.09-.24,0-.06-.03-.11-.06-.16-.05-.04-.1-.06-.16-.06h-.01v-.1h.01c.13,0,.21,.04,.29,.1,.08,.06,.11,.14,.11,.24s-.04,.19-.11,.25c-.06,.08-.16,.14-.3,.21v-.11Zm0,1.15c.05-.04,.11-.09,.18-.14,.1,.1,.19,.16,.28,.2,.08,.05,.16,.06,.24,.06,.11,0,.2-.03,.28-.09,.09-.06,.14-.16,.18-.29l-.05-.04c-.02,.06-.05,.11-.1,.15-.05,.04-.1,.05-.18,.05-.06,0-.14-.01-.2-.05-.06-.04-.15-.11-.23-.2,.1-.13,.2-.26,.29-.42,.08-.15,.14-.24,.19-.26,.04-.03,.1-.05,.18-.05v-.05h-.6v.05s.06,.01,.09,.04c.03,.04,.05,.08,.05,.11,0,.14-.09,.3-.26,.49-.11-.14-.21-.29-.31-.45v.52c.03,.05,.06,.09,.1,.14-.04,.04-.08,.06-.1,.09v.14Zm-.13-1.08c.05-.03,.09-.05,.13-.06v.11l-.08,.04s.05,.08,.08,.11v.52c-.08-.09-.13-.16-.16-.23-.05-.08-.1-.16-.16-.28-.11,.06-.2,.13-.26,.21-.05,.08-.09,.15-.09,.24,0,.1,.04,.19,.1,.26,.08,.08,.16,.11,.28,.11,.06,0,.11-.01,.18-.04,.04-.01,.08-.04,.13-.06v.14c-.05,.02-.1,.05-.14,.07-.1,.04-.2,.05-.31,.05-.16,0-.29-.04-.39-.11-.09-.09-.14-.19-.14-.3,0-.1,.05-.21,.13-.33,.09-.11,.25-.23,.48-.35-.04-.09-.08-.18-.09-.23-.03-.06-.03-.13-.03-.18,0-.16,.06-.29,.18-.37,.1-.06,.2-.1,.31-.1v.1c-.08,0-.14,.04-.18,.09-.05,.05-.06,.11-.06,.16,0,.04,0,.09,.02,.15,.01,.05,.05,.14,.09,.25"/><path class="b" d="M36.77,26.38v.65h-.05c-.03-.13-.05-.23-.1-.3-.04-.08-.11-.13-.19-.18-.09-.04-.18-.06-.26-.06-.1,0-.19,.03-.25,.09-.06,.06-.1,.13-.1,.2,0,.05,.03,.11,.06,.15,.06,.08,.2,.16,.43,.28,.19,.1,.31,.18,.39,.23,.06,.05,.11,.1,.15,.18,.04,.06,.05,.14,.05,.21,0,.14-.05,.26-.18,.37-.11,.1-.26,.15-.44,.15-.06,0-.11,0-.16-.01-.03,0-.09-.01-.19-.05-.09-.03-.15-.04-.18-.04s-.05,0-.06,.01c-.01,.03-.03,.05-.03,.09h-.06v-.64h.06c.03,.14,.05,.24,.1,.3,.04,.06,.1,.13,.19,.16,.09,.05,.19,.08,.29,.08,.13,0,.23-.04,.29-.1,.08-.05,.11-.13,.11-.21,0-.04-.01-.09-.04-.14-.04-.05-.08-.09-.13-.13-.04-.04-.15-.09-.31-.18-.18-.1-.29-.16-.37-.21-.06-.06-.13-.11-.16-.19-.04-.06-.05-.13-.05-.21,0-.13,.05-.25,.16-.34,.1-.1,.25-.15,.42-.15,.1,0,.21,.03,.33,.08,.06,.03,.1,.04,.13,.04s.04-.01,.06-.03c.01-.01,.03-.04,.04-.09h.05Z"/><path class="b" d="M37.85,27.36c.08-.01,.14-.04,.2-.1,.08-.08,.11-.18,.11-.29,0-.08-.03-.15-.06-.23-.03-.08-.08-.13-.14-.15-.04-.03-.08-.04-.11-.05v-.11c.11,0,.2,.02,.28,.05,.1,.03,.19,.09,.26,.18,.06,.08,.1,.18,.1,.29,0,.15-.05,.28-.16,.38-.1,.09-.25,.14-.45,.14h-.03v-.1Zm-.3-.01c.05,0,.1,.01,.14,.01,.04,.01,.08,.01,.1,.01s.05,0,.06-.01v.1s-.08,0-.13-.01c-.05,0-.11-.01-.18-.03v.54c0,.13,.01,.2,.04,.23,.04,.04,.1,.06,.18,.06h.08v.05h-.86v-.05h.08c.09,0,.15-.03,.18-.08,.03-.04,.04-.1,.04-.21v-1.21c0-.11-.01-.19-.04-.23-.04-.04-.1-.05-.18-.05h-.08v-.05h.87v.11s-.08-.01-.11-.01c-.05,0-.11,.01-.19,.04v.78Z"/><path class="b" d="M39.41,27.58l-.33-.77h-.01v-.3l.06-.13h.05l.69,1.56c.05,.13,.1,.21,.15,.25,.04,.04,.1,.05,.19,.06v.05h-.78v-.05c.08,0,.13-.01,.15-.04,.04-.03,.05-.05,.05-.08,0-.05-.03-.11-.06-.2l-.11-.26h-.39v-.1h.34Zm-.34-.75l-.34,.75h.34v.1h-.38l-.14,.29c-.04,.08-.05,.14-.05,.16,0,.04,.01,.06,.04,.08,.04,.03,.1,.04,.19,.05v.05h-.62v-.05c.08-.01,.14-.04,.16-.05,.04-.05,.1-.14,.16-.28l.63-1.42v.31Z"/><g><path class="b" d="M28.63,15.71v-2.12h1.91v-2.17h1.89v-2.15h2.84c-1.34-.22-2.76-1.47-3.65-2.8h2.8C31.7,5.8,29.9,.3,29.8,.01h0c-.09,.29-1.89,5.79-4.62,6.45h2.8c-.89,1.33-2.5,2.44-3.88,2.71l3.07-.03c-.65,1.13-2.79,2.54-4.63,2.96h4.07c-.77,.95-3.16,2.57-5.43,2.9h4.66c-.92,1.13-3.68,2.48-5.85,2.87h6.91v-2.18h1.72Z"/><rect class="b" x="32.83" y="9.69" width="3.35" height="1.75"/><rect class="b" x="30.98" y="11.84" width="3.33" height="1.75"/><rect class="b" x="34.69" y="11.84" width="3.33" height="1.75"/><rect class="b" x="32.86" y="13.99" width="3.33" height="1.75"/><rect class="b" x="29.11" y="13.99" width="3.33" height="1.75"/><rect class="b" x="36.57" y="13.99" width="3.33" height="1.75"/><rect class="b" x="31" y="16.14" width="3.33" height="1.75"/><rect class="b" x="27.3" y="16.14" width="3.33" height="1.75"/><rect class="b" x="34.68" y="16.14" width="3.33" height="1.75"/><rect class="b" x="38.37" y="16.14" width="3.33" height="1.75"/></g><polygon class="b" points="41.98 16.87 41.98 16.74 42.95 16.74 42.95 16.87 42.55 16.87 42.55 17.89 42.39 17.89 42.39 16.87 41.98 16.87"/><polygon class="b" points="43.31 16.74 43.69 17.71 44.08 16.74 44.29 16.74 44.29 17.89 44.13 17.89 44.13 16.93 43.76 17.89 43.63 17.89 43.24 16.93 43.24 17.89 43.09 17.89 43.09 16.74 43.31 16.74"/><rect class="b" y="24.51" width="62.02" height=".27"/></svg>