<svg id="Layer_1" data-name="Layer 1" xmlns="http://www.w3.org/2000/svg" width="850" height="512" viewBox="0 0 850 512"><rect width="850" height="512" style="fill:#41479b"/><polygon points="73.7 0 0 0 0 50.6 776.3 512 850 512 850 461.4 73.7 0" style="fill:#f5f5f5"/><polygon points="7.1 0 0 0 0 30.5 810.2 512 850 512 850 501 7.1 0" style="fill:#ff4b55"/><polygon points="776.3 0 850 0 850 50.6 73.7 512 0 512 0 461.4 776.3 0" style="fill:#f5f5f5"/><polygon points="842.9 0 850 0 850 30.5 39.8 512 0 512 0 501 842.9 0" style="fill:#ff4b55"/><polygon points="850 188.6 492.4 188.6 492.4 0 357.6 0 357.6 188.6 0 188.6 0 323.4 357.6 323.4 357.6 512 492.4 512 492.4 323.4 850 323.4 850 188.6" style="fill:#f5f5f5"/><polygon points="850 296.4 850 215.6 465.4 215.6 465.4 0 384.6 0 384.6 215.6 0 215.6 0 296.4 384.6 296.4 384.6 512 465.4 512 465.4 296.4 850 296.4" style="fill:#ff4b55"/></svg>